<?xml version="1.0" encoding="utf-8"?>
<!-- Generator: Adobe Illustrator 21.0.0, SVG Export Plug-In . SVG Version: 6.00 Build 0)  -->
<svg version="1.1" id="Layer_1" xmlns="http://www.w3.org/2000/svg"  x="0px" y="0px"
	 viewBox="0 0 140 140" style="enable-background:new 0 0 140 140;" xml:space="preserve">
<style type="text/css">
	.st0{fill:none;stroke:#C4C0D7;stroke-width:3;stroke-miterlimit:10;}
	.st1{fill:none;stroke:#57C1B3;stroke-width:3;stroke-miterlimit:10;}
	.st2{fill:#C4C0D7;}
</style>
<g id="Layer_1_1_">
</g>
<g>
	<path class="st0" d="M38.9,34c0-3.2,2.6-5.9,5.9-5.9h50.3c3.2,0,5.9,2.6,5.9,5.9v98.5c0,3.2-2.6,5.9-5.9,5.9H44.8
		c-3.2,0-5.9-2.6-5.9-5.9V34z"/>
	<g>
		<rect x="44.8" y="43.3" class="st0" width="50.3" height="76.8"/>
	</g>
	<path class="st0" d="M65.4,129.4c0,2.5,2,4.5,4.5,4.5c2.5,0,4.5-2,4.5-4.5c0-2.5-2-4.5-4.5-4.5C67.4,124.9,65.4,126.9,65.4,129.4z"
		/>
	<line class="st0" x1="63.2" y1="35.9" x2="76.6" y2="35.9"/>
	<line class="st0" x1="52.1" y1="107.2" x2="87.7" y2="107.2"/>
	<line class="st0" x1="52.1" y1="100.1" x2="87.7" y2="100.1"/>
	<g>
		<circle class="st1" cx="70" cy="70.5" r="9.7"/>
		<polyline class="st1" points="75.8,70.5 70,70.5 70,64.7 		"/>
		<g>
			<g>
				<g>
					<path class="st0" d="M83.6,61.2c-0.6-0.8-1.2-1.6-2-2.4c-6.5-6.5-17-6.5-23.4,0c-2.1,2.1-3.5,4.6-4.2,7.3"/>
					<g>
						<polygon class="st2" points="86.4,58.6 85.9,66.1 79.7,61.9 						"/>
					</g>
				</g>
			</g>
			<g>
				<g>
					<path class="st0" d="M56.3,79.9c0.6,0.8,1.2,1.6,2,2.4c6.5,6.5,17,6.5,23.4,0c2.1-2.1,3.5-4.6,4.2-7.3"/>
					<g>
						<polygon class="st2" points="53.5,82.5 54,75 60.2,79.1 						"/>
					</g>
				</g>
			</g>
		</g>
	</g>
</g>
</svg>
