<?xml version="1.0" encoding="utf-8"?>
<!-- Generator: Adobe Illustrator 21.0.0, SVG Export Plug-In . SVG Version: 6.00 Build 0)  -->
<svg version="1.1" id="Layer_1" xmlns="http://www.w3.org/2000/svg"  x="0px" y="0px"
	 viewBox="0 0 140 140" style="enable-background:new 0 0 140 140;" xml:space="preserve">
<style type="text/css">
	.st0{fill:none;stroke:#C4C0D7;stroke-width:3;stroke-miterlimit:10;}
	.st1{fill:none;stroke:#57C1B3;stroke-width:3;stroke-miterlimit:10;}
</style>
<g id="Layer_1_1_">
</g>
<g>
	<g>
		<g>
			<path class="st0" d="M132.8,55.5l0.1-0.3c0.4-2.7-0.3-5.3-2-7.3c-1.7-2-4.2-3.1-6.9-3.1H117l-1.1,6.2h8.2c0.9,0,1.6,0.3,2.1,0.9
				c0.5,0.6,0.7,1.3,0.6,2.1l-7.6,27.5h6.4L132.8,55.5z"/>
		</g>
		<path class="st0" d="M129.3,52.3"/>
	</g>
	<line class="st0" x1="69.9" y1="84.5" x2="69.9" y2="93.9"/>
	<line class="st0" x1="107.5" y1="93.9" x2="107.5" y2="84.5"/>
	<g>
		<path class="st0" d="M15.7,108.5H9.1c-1.5,0-2.7,1.2-2.7,2.7v5.1c0,4.7,3.8,8.5,8.5,8.5h1.2"/>
		<polyline class="st0" points="23.2,132.2 23.2,138.3 41.1,138.3 41.1,132.2 		"/>
		<g>
			<g>
				<path class="st0" d="M15.7,101.2v20.5c0,6,4.9,10.9,10.9,10.9h11.1c6,0,10.9-4.9,10.9-10.9v-20.5H15.7z"/>
			</g>
		</g>
	</g>
	<g>
		<polyline class="st0" points="117,44.7 91.5,34.5 86,34.5 64.2,44.7 		"/>
	</g>
	<polygon class="st0" points="109.8,93.9 67.7,93.9 60.5,138.3 117,138.3 	"/>
	<polygon class="st0" points="96.9,93.9 80.6,93.9 76.3,138.3 101.2,138.3 	"/>
	<polygon class="st0" points="51.7,44.7 64.2,66.9 67.7,84.5 109.8,84.5 117,44.7 64.8,44.7 	"/>
	<polygon class="st0" points="80.6,84.5 96.9,84.5 99.7,44.7 77.8,44.7 	"/>
	<polygon class="st0" points="92.9,24.7 84.6,24.7 86,34.5 91.5,34.5 	"/>
	<line class="st0" x1="64.2" y1="66.9" x2="64.2" y2="44.7"/>
	<path class="st1" d="M47.1,72.2h-14c-2,0-3.6,1.6-3.6,3.6c0,2,1.6,3.6,3.6,3.6h4.2c2,0,3.6,1.6,3.6,3.6c0,2-1.6,3.6-3.6,3.6H27
		c-2,0-3.6,1.6-3.6,3.6v3.6"/>
</g>
</svg>
